<svg width="1280" height="880" viewBox="0 0 2020 1140" xmlns="http://www.w3.org/2000/svg"><path d="M1535,555.9999999999999C1543.1666666666667,628.9220675442386,1500.8616017057063,772.8018384365973,1441.7339220468475,837.2642839469186C1382.6062423879887,901.7267294572398,1278.7285627291299,938.9222292098586,1180.2339220468475,942.7746730619269C1081.7392813645652,946.6271169139952,958.0940519687686,873.9101829940582,850.7660779531527,860.3789470593284C743.4381039375369,846.8477111245986,582.4362380831743,914.4837486301032,536.2660779531527,861.5872574535484C490.0959178231311,808.6907662769937,566.0276132635519,644.3725012941937,573.7451171730231,543.0000000000001C581.4626210824944,441.62749870580654,541.234274613292,311.62116224631444,582.5711014099802,253.3522496883869C623.9079282066684,195.08333713045934,722.4889411803413,224.9960114429919,821.7660779531525,193.3865246524348C921.0432147259637,161.7770378618777,1083.0726146978982,29.30443660686916,1178.2339220468473,63.695328945044366C1273.3952293957964,98.08622128321957,1333.2729090546552,317.68110017232675,1392.7339220468473,399.731878681486C1452.1949350390394,481.7826571906453,1526.8333333333333,483.07793245576113,1535,555.9999999999999C1543.1666666666667,628.9220675442386,1500.8616017057063,772.8018384365973,1441.7339220468475,837.2642839469186" fill="#3471ff89"/></svg>